<svg xmlns="http://www.w3.org/2000/svg" viewBox="0 0 48 48">
  <path d="M39.2 9.8C37.6 7.6 34.4 6.6 30 6.6H17.6c-1 0-1.8.7-2 1.6L11 38.4c-.1.6.4 1.2 1 1.2h7.4l1.8-11.8-.1.4c.2-1 1-1.6 2-1.6h4c7.8 0 13.8-3.2 15.6-12.4v-.8c-.2 0-.2 0 0 0 .4-3 0-5-2.5-7.6z" fill="#003087"/>
  <path d="M41.8 17.4v.8c-1.8 9.2-7.8 12.4-15.6 12.4h-4c-1 0-1.8.6-2 1.6l-2.4 15h5.2c.8 0 1.6-.6 1.8-1.4l.1-.4 1.4-9 .1-.6c.2-.8.9-1.4 1.8-1.4h1c7.2 0 12.8-2.8 14.4-11.2.8-3.4.4-6.4-1.8-8.4" fill="#009cde"/>
  <path d="M39.2 9.8C37.6 7.6 34.4 6.6 30 6.6H17.6c-1 0-1.8.7-2 1.6L11 38.4c-.1.6.4 1.2 1 1.2h7.4l1.8-11.8 2.4-15.2c.2-1 1-1.6 2-1.6h4c7.8 0 13.8-3.2 15.6-12.4-.4 0-.4 0 0 0-.6-3-2.5-5-6-7.6" fill="#002F6C" opacity="0"/>
</svg>
