<svg xmlns="http://www.w3.org/2000/svg" viewBox="0 0 48 48">
  <rect width="48" height="48" rx="8" fill="#25D366"/>
  <path d="M34.6 13.4C32 10.8 28.6 9.2 24.8 9.2c-7.6 0-13.8 6.2-13.8 13.8 0 2.4.6 4.8 1.8 6.8L11 37l7.4-2c2 1 4.2 1.6 6.4 1.6 7.6 0 13.8-6.2 13.8-13.8 0-3.8-1.4-7.2-4-9.8zm-9.8 21.2c-2 0-4-.6-5.8-1.6l-.4-.2-4.4 1.2 1.2-4.2-.3-.4c-1.2-1.8-1.8-4-1.8-6.2 0-6.4 5.2-11.6 11.6-11.6 3 0 5.8 1.2 8 3.4 2.2 2.2 3.4 5 3.4 8-.1 6.4-5.3 11.6-11.5 11.6zm6.4-8.6c-.4-.2-2-1-2.4-1.2-.4-.1-.6-.2-.8.2-.2.4-.8 1-.8 1.2-.2.2-.4.2-.8 0-.4-.2-1.6-.6-3-1.8-1.2-1-1.8-2.2-2-2.6-.2-.4 0-.6.2-.8.2-.2.4-.4.4-.6.2-.2.2-.4.4-.6 0-.2 0-.4-.1-.6-.1-.2-.8-1.8-1-2.4-.4-.6-.4-.6-.8-.6h-.6c-.2 0-.6.1-1 .4-.4.4-1.2 1.2-1.2 2.8s1.2 3.2 1.4 3.4c.2.2 2.4 3.6 5.8 5 .8.4 1.4.6 2 .8.8.2 1.6.2 2.2.1.6-.1 2-.8 2.4-1.6.2-.8.2-1.4.2-1.6-.2-.1-.4-.2-.8-.4z" fill="white"/>
</svg>
